<?xml version="1.0" encoding="utf-8"?>
<!-- Generator: Adobe Illustrator 23.0.1, SVG Export Plug-In . SVG Version: 6.00 Build 0)  -->
<svg version="1.1" xmlns="http://www.w3.org/2000/svg" xmlns:xlink="http://www.w3.org/1999/xlink" x="0px" y="0px"
	 viewBox="0 0 273.15 276.96" style="enable-background:new 0 0 273.15 276.96;" xml:space="preserve">
<style type="text/css">
	.st0{fill:#FFFFFF;}
</style>
<g id="Layer_1">
</g>
<g id="Layer_2">
	<g>
		<path class="st0" d="M74.3,268.46c-4.6-15.59-9.2-31.18-13.8-46.77c-1.24-4.19-6.85-4.84-9.14-1.19
			c-5.7,9.09-9.04,19.3-9.96,29.76c-0.89-4.37-3.47-8.37-7.19-11.2c-2.07-1.58-4.34-2.68-6.7-3.39c0.76-0.85,1.5-1.73,2.19-2.66
			c4.31-5.86,7.99-14.33,4.2-21.36c-6.44-11.92-16.68-5.78-24.38,2.36c-3.11-1.56-7.67-0.01-7.39,4.22c0.1,1.58,0.19,3.16,0.28,4.74
			c-0.65,0.97-1.22,1.88-1.69,2.69c-1.67,2.88-0.18,5.61,2.1,6.81c0.12,3.74,0.19,7.49,0.2,11.24c0.01,3.92-0.05,7.85-0.16,11.77
			c-0.06,1.95-0.13,3.89-0.21,5.84c-1.72,1.66-2.57,4.52-0.99,6.98c-0.49,1.72,0.03,3.69,1.23,5.05c0.1,0.11,0.19,0.22,0.29,0.33
			c1.57,1.78,4.2,1.78,6.12,0.68c11.65,4.73,27.55-3.36,31.59-15.42c0.11-0.33,0.2-0.66,0.29-0.99c0.13,5.18,0.84,10.38,2.17,15.48
			c1.62,6.22,11.27,3.58,9.64-2.66c-1.2-4.58-1.8-9.21-1.86-13.82c2.59-0.28,5.2-0.24,7.79,0c0.52,0.05,1.03-0.02,1.51-0.17
			l4.23,14.35C66.47,277.28,76.12,274.65,74.3,268.46z M17.42,219.97c2.11-2.14,8.04-8.18,7.99-1.42
			c-0.05,6.67-6.53,12.88-12.54,16.23c-0.08-2.99-0.2-5.98-0.34-8.97C14.01,223.76,15.61,221.8,17.42,219.97z M31.18,256.32
			c-2.7,6.96-12.12,11.44-18.67,8.21c0.01-0.42,0.01-0.83,0.03-1.22c0.24-4.9,0.39-9.8,0.44-14.71c0.01-0.94,0-1.88,0.01-2.83
			c4.32-1.29,9.04-1.98,13.26,0.02C30.31,247.73,32.9,251.92,31.18,256.32z M51.88,246.89c0.57-3.43,1.45-6.81,2.64-10.1
			c0.99,3.35,1.98,6.7,2.96,10.05C55.61,246.72,53.75,246.75,51.88,246.89z"/>
		<path class="st0" d="M107.87,261.74c-5.06-8.06-10.94-15.51-17.61-22.27c5.08-5.77,8.74-12.54,10.83-20.03
			c1.73-6.21-7.92-8.86-9.64-2.66c-1.32,4.76-3.36,9.03-6.12,12.88c-0.64-3.66-1.29-7.31-1.98-10.96c-1.2-6.32-10.84-3.64-9.64,2.66
			c2.99,15.79,5.5,31.66,7.47,47.6c0.78,6.3,10.79,6.38,10,0c-0.66-5.36-1.4-10.71-2.17-16.06c3.72,4.36,7.14,8.98,10.22,13.89
			C102.65,272.23,111.3,267.21,107.87,261.74z"/>
		<path class="st0" d="M141.85,256.95c-4.2-0.83-8-0.28-12.17,0.54c-4.46,0.87-8.21,0.74-9.73-4.24c-0.49-1.62-0.64-3.33-0.61-5.08
			c5.35-0.43,10.66-1.25,15.91-2.47c6.27-1.45,3.61-11.1-2.66-9.64c-4.06,0.94-8.12,1.6-12.22,2c0.38-3.85,0.69-7.71,0.92-11.57
			c1.13-0.29,2.26-0.59,3.38-0.88c4.35-1.13,8.69-2.27,13.04-3.4c6.22-1.62,3.58-11.27-2.66-9.64c-5.28,1.38-10.55,2.75-15.83,4.13
			c-3.6,0.94-9.04,1.27-11.67,4.19c-1.65,1.83-1.72,3.9-0.78,6.06c0.08,0.19,0.16,0.38,0.25,0.57c0.58,1.34,2.51,2.49,4.02,2.48
			c-0.25,3.33-0.56,6.66-0.89,9.99c-1.58,1.71-1.77,4.52-0.58,6.43c-0.26,4.52,0.07,9.08,2.23,13.18c2.35,4.44,6.33,7.54,11.33,8.25
			c5.43,0.78,10.78-2.31,16.08-1.26C145.47,267.84,148.16,258.2,141.85,256.95z"/>
		<path class="st0" d="M272.37,257.08c-4.66-7.54-9.2-15.4-14.35-22.75c1.01-2.09,2.05-4.18,3.14-6.23c1.13-2.11,2.31-4.19,3.6-6.2
			c0.57-0.89,1.15-1.78,1.77-2.64c0.32-0.47,0.66-0.93,1.02-1.38c4.29,0.49,7.35-6.34,2.86-9.51c-8.47-5.98-16.23,11.28-19.17,17.16
			c-3.05-3.56-6.34-6.9-10.02-9.87c-4.96-4.01-12.08,3.02-7.07,7.07c4.64,3.76,8.64,8.09,12.27,12.75
			c-3.35,6.99-6.88,13.89-11.96,19.79c-0.05,0.05-0.08,0.11-0.13,0.16c4.25-6.73,3.49-16.87,0.64-23.76
			c-2.65-6.42-8.14-11.19-14.62-12.32c-1.98-1.6-5.21-1.76-7.06,0.24c-0.16,0.04-0.31,0.06-0.47,0.1c-4.15,1.12-4.35,5.8-2.15,8.28
			c-0.41,2.15-0.71,4.35-0.9,6.58c-1.68-4.73-5.2-8.86-9.59-11.64c-1.63-1.03-3.65-2.09-5.85-3c0.15-0.21,0.31-0.41,0.45-0.62
			c3.37-5.04,3.96-11.66,0.35-16.73c-4.24-5.95-10.35-7.03-16.08-5.34c-2.81-2.31-8.39,0-8.25,4.55c-1.78,1.49-3.34,3.22-4.57,5.08
			c-2.91,4.39,2.32,8.54,6.27,7c0.37,3.23,0.66,6.46,0.87,9.69c-0.06,0.57-0.02,1.14,0.1,1.7c0.45,7.91,0.42,15.85-0.06,23.77
			c-3.22-1.07-7.77,1.56-6.82,6.01c0.68,3.18,2.89,5.11,5.75,6.24c-0.25,5.32,7.32,5.75,9.49,1.41c2.73-0.02,5.32-0.3,7.29-0.59
			c9.2-1.33,17.99-6.93,20.87-16.11c0.4,2.87,1.08,5.66,2.12,8.27c3.49,8.78,14.24,10.13,20.54,3.37c0.38-0.41,0.73-0.84,1.06-1.28
			c-2.45,4.74,3.89,10.53,7.8,5.99c4.64-5.4,8.22-11.38,11.43-17.64c3.75,5.73,7.22,11.66,10.78,17.43
			C267.11,267.59,275.77,262.57,272.37,257.08z M181.58,206.62c2.17-0.72,4.33-0.42,5.68,2.07c1.89,3.49-1.06,6.28-4.46,8.18
			C182.47,213.45,182.07,210.03,181.58,206.62z M200.35,243.44c-1.64,4.55-6.15,7.32-10.63,8.4c-2.14,0.52-4.35,0.69-6.56,0.68
			c0.63-8.32,0.75-16.63,0.38-24.93c0.25-0.1,0.5-0.21,0.75-0.31c3.59,0.42,9.4,3.32,10.84,4.26
			C199.1,234.13,202.09,238.62,200.35,243.44z M225.64,250.43c-4.41,5.64-5.57-5.42-5.78-8c-0.35-4.3-0.08-8.53,0.69-12.71
			C227.06,232.73,229.86,245.04,225.64,250.43z"/>
		<g>
			<path class="st0" d="M213.57,78.4c-1.4-0.78-2.97-1.31-4.64-1.88c-2.18-0.74-4.44-1.5-6.47-2.9c-7.52-5.17-7.79-15.39-7.46-24.57
				c0.4-10.87-2.03-17.59-7.2-19.97c-4.7-2.16-10.38-0.12-15.88,1.85l-0.47,0.17c-8.79,3.15-15.19,2.92-19.56-0.7
				c-1.48-1.23-2.54-2.72-3.56-4.17c-0.57-0.8-1.1-1.55-1.69-2.24c-4.23-4.94-12.31-6.7-19.65-4.29
				c-6.05,1.99-11.81,6.42-17.61,13.57l-0.21,0.27c-2.43,3-5.19,6.4-9.46,7.05c-2.52,0.38-4.9-0.37-7-1.03
				c-0.69-0.22-1.38-0.44-2.08-0.61C80.48,36.39,70.3,44.2,66.7,52.91c-3.49,8.45-2.94,19.35,1.55,30.7l0.41,1.04
				c1.72,4.29,3.67,9.15,2.07,13.98c-0.65,1.95-1.77,3.55-2.86,5.1c-0.24,0.34-0.48,0.68-0.71,1.03c-3.67,5.42-6.6,14.28-2.74,21.44
				c4.27,7.93,14.3,10.22,24,12.43c1.51,0.35,3.01,0.69,4.47,1.05c3.2,0.79,7.07,2.15,8.64,5.72c0.89,2.02,0.73,4.11,0.59,5.96
				c-0.08,1.08-0.16,2.1-0.03,3.02c0.62,4.48,6.4,6.96,11.2,6.37c3.6-0.44,6.97-1.96,10.54-3.57c1.71-0.77,3.48-1.57,5.29-2.25
				c1.89-0.7,5.3-1.74,8.99-1.74c3.24,0,6.69,0.8,9.53,3.32c1.42,1.26,2.44,2.76,3.43,4.21c0.96,1.41,1.87,2.75,3.04,3.69
				c4.24,3.41,11.18,0.97,15.01-3.45c2.68-3.1,4.4-6.86,6.23-10.85c0.97-2.12,1.97-4.31,3.14-6.4c4.4-7.91,10.91-12.38,17.42-12
				c1.98,0.12,3.84,0.67,5.63,1.21c2.21,0.66,4.29,1.28,6.24,0.95c7.63-1.28,7.75-8.53,7.08-18.64c-0.22-3.28-0.42-6.38-0.07-8.91
				c0.42-2.97,1.44-5.99,2.42-8.91C220.21,88.56,221.64,82.91,213.57,78.4z M79.36,67.79c-0.06-1.38,1.01-2.55,2.39-2.61
				c1.39-0.06,2.55,1.01,2.61,2.39c0.19,4.38,1.13,8.65,2.8,12.7c0.53,1.28-0.08,2.74-1.36,3.26c-0.31,0.13-0.63,0.19-0.95,0.19
				c-0.98,0-1.91-0.58-2.31-1.55C80.64,77.6,79.58,72.75,79.36,67.79z M101.73,123.66c-2.37,0.36-4.75,0.54-7.12,0.54
				c-3.36,0-6.7-0.36-10.01-1.07c-1.35-0.29-2.21-1.62-1.92-2.97c0.29-1.35,1.62-2.2,2.97-1.92c5.06,1.09,10.22,1.25,15.33,0.48
				c1.37-0.21,2.64,0.73,2.85,2.1C104.03,122.17,103.09,123.45,101.73,123.66z M146.03,33.27c1.35-0.29,2.68,0.56,2.97,1.91
				l3.37,15.51c0.29,1.35-0.56,2.68-1.91,2.97c-0.18,0.04-0.36,0.06-0.53,0.06c-1.15,0-2.19-0.8-2.44-1.97l-3.37-15.51
				C143.82,34.89,144.68,33.56,146.03,33.27z M109.97,52.04c2.76-4.45,5.96-8.66,9.51-12.51c0.94-1.01,2.52-1.07,3.53-0.14
				c1.01,0.94,1.08,2.52,0.14,3.53c-3.34,3.61-6.34,7.56-8.93,11.74c-0.47,0.76-1.29,1.18-2.13,1.18c-0.45,0-0.9-0.12-1.31-0.38
				C109.6,54.75,109.24,53.21,109.97,52.04z M134.8,135.84c-1.69,2.66-2.87,5.57-3.49,8.65c-0.24,1.18-1.28,2-2.45,2
				c-0.17,0-0.33-0.02-0.5-0.05c-1.35-0.28-2.23-1.6-1.95-2.95c0.75-3.69,2.16-7.16,4.17-10.34c0.74-1.16,2.29-1.51,3.45-0.77
				C135.2,133.13,135.54,134.67,134.8,135.84z M161.56,113.03c-10.04,13.73-29.31,16.71-43.03,6.67
				c-13.73-10.04-16.71-29.31-6.67-43.03c10.04-13.73,29.31-16.71,43.03-6.67C168.62,80.03,171.6,99.3,161.56,113.03z
				 M176.04,122.21c-2.19,3.54-2.46,8.26-0.7,12.03c0.59,1.25,0.05,2.74-1.2,3.32c-0.34,0.16-0.7,0.24-1.06,0.24
				c-0.94,0-1.84-0.53-2.27-1.44c-2.5-5.34-2.13-11.77,0.97-16.78c0.73-1.17,2.27-1.54,3.44-0.81
				C176.41,119.5,176.77,121.04,176.04,122.21z M183.65,59.52l-6.98,6.4c-1.09,1-1.43,1.68-1.48,1.91c0.61,1.2,0.15,2.67-1.03,3.32
				c-0.38,0.21-0.79,0.31-1.2,0.31c-0.88,0-1.74-0.47-2.2-1.3c-0.76-1.4-1.45-4.28,2.53-7.92l6.98-6.4c1.02-0.93,2.6-0.86,3.53,0.15
				C184.73,57,184.66,58.58,183.65,59.52z M203.43,100.85c-0.4,0.95-1.33,1.53-2.3,1.53c-0.33,0-0.66-0.06-0.97-0.2l-13.3-5.63
				c-1.27-0.54-1.87-2.01-1.33-3.28c0.54-1.27,2.01-1.87,3.28-1.33l13.3,5.63C203.38,98.11,203.97,99.57,203.43,100.85z"/>
			<path class="st0" d="M211.82,38.27C181.3-2.36,122.91-10.01,81.41,21.18C39.9,52.36,31,110.57,61.52,151.2
				c30.52,40.62,88.91,48.27,130.41,17.09C233.44,137.1,242.34,78.89,211.82,38.27z M218.85,114.96
				c0.58,8.81,1.37,20.87-10.41,22.85c-2.87,0.48-5.5-0.31-8.05-1.07c-1.65-0.49-3.21-0.96-4.73-1.05
				c-7.3-0.45-12.32,7.5-13.68,9.95c-1.09,1.95-2.06,4.07-3,6.12c-1.86,4.07-3.79,8.27-6.84,11.8c-3.28,3.79-8.37,6.45-13.24,6.45
				c-2.6,0-5.14-0.76-7.3-2.5c-1.63-1.31-2.75-2.96-3.84-4.55c-0.89-1.31-1.73-2.54-2.78-3.47c-4.57-4.06-12.23-1.65-14.46-0.82
				c-1.68,0.63-3.39,1.4-5.04,2.14c-3.68,1.66-7.49,3.38-11.7,3.89c-6.79,0.83-14.7-2.92-15.65-9.8c-0.18-1.34-0.09-2.62,0.01-3.86
				c0.12-1.58,0.22-2.94-0.26-4.04c-0.87-1.97-3.63-2.88-5.94-3.45c-1.44-0.35-2.91-0.69-4.4-1.03
				c-10.08-2.3-21.51-4.91-26.63-14.44c-4.69-8.72-1.55-18.93,2.96-25.58c0.25-0.36,0.5-0.72,0.75-1.08
				c0.96-1.37,1.87-2.66,2.33-4.06c1.14-3.44-0.45-7.4-1.99-11.23l-0.42-1.05c-3.45-8.72-6.51-21.64-1.52-33.7
				c4.24-10.25,16.38-19.39,28.61-16.3c0.79,0.2,1.55,0.44,2.3,0.67c1.85,0.58,3.6,1.13,5.2,0.89c2.73-0.41,4.87-3.05,6.94-5.61
				l0.22-0.27c6.3-7.76,12.67-12.62,19.47-14.85c8.98-2.94,18.6-0.74,23.93,5.49c0.71,0.82,1.32,1.69,1.91,2.53
				c0.91,1.29,1.78,2.51,2.85,3.4c3.19,2.65,8.31,2.65,15.66,0.02l0.47-0.17c5.96-2.14,12.72-4.57,18.9-1.72
				c6.78,3.12,9.99,11.11,9.53,23.75c-0.31,8.48-0.12,17.1,5.73,21.13c1.58,1.08,3.48,1.73,5.49,2.41c1.76,0.6,3.58,1.21,5.31,2.17
				c11.39,6.35,8.12,16.02,5.49,23.78c-0.93,2.74-1.89,5.58-2.25,8.18C218.46,108.99,218.65,111.89,218.85,114.96z"/>
		</g>
	</g>
</g>
</svg>
